<?xml version="1.0" encoding="UTF-8" standalone="no"?>
<!DOCTYPE svg PUBLIC "-//W3C//DTD SVG 1.1//EN" "http://www.w3.org/Graphics/SVG/1.1/DTD/svg11.dtd">
<svg xmlns="http://www.w3.org/2000/svg" xmlns:xl="http://www.w3.org/1999/xlink" version="1.1" viewBox="102 376 103 37" width="103pt" height="37pt" xmlns:dc="http://purl.org/dc/elements/1.1/">
  <metadata> Produced by OmniGraffle 7.5 
    <dc:date>2017-10-14 11:56:05 +0000</dc:date>
  </metadata>
  <defs/>
  <g stroke="none" stroke-opacity="1" stroke-dasharray="none" fill="none" fill-opacity="1">
    <title>Canvas 1</title>
    <g>
      <title>Layer 1</title>
      <path d="M 105.83826 396.05885 C 104.54687 396.05885 103.5 397.10572 103.5 398.3971 L 103.5 409.30903 C 103.5 410.6004 104.54687 411.6473 105.83826 411.6473 L 132.33866 411.6473 C 133.63005 411.6473 134.67693 410.6004 134.67693 409.30903 L 134.67693 398.3971 C 134.67693 397.10572 133.63005 396.05885 132.33866 396.05885 L 105.83826 396.05885 Z M 114.91324 403.89204 L 118.46958 399.931 L 119.53648 400.85076 L 118.163 402.3469 C 117.80736 402.72704 117.50078 403.0091 117.10836 403.2421 L 123.49751 403.2421 L 123.49751 404.542 L 117.12062 404.542 C 117.53757 404.7995 117.74605 404.98347 118.163 405.4372 L 119.53648 406.93333 L 118.46958 407.85307 Z M 140.36672 396.05885 C 139.07533 396.05885 138.02845 397.10572 138.02845 398.3971 L 138.02845 409.30903 C 138.02845 410.6004 139.07533 411.6473 140.36672 411.6473 L 166.8671 411.6473 C 168.1585 411.6473 169.20538 410.6004 169.20538 409.30903 L 169.20538 398.3971 C 169.20538 397.10572 168.1585 396.05885 166.8671 396.05885 L 140.36672 396.05885 Z M 153.61691 408.1452 L 149.65588 404.58887 L 150.57563 403.52197 L 152.07174 404.89545 C 152.4519 405.2511 152.73396 405.55766 152.96696 405.9501 L 152.96696 399.56094 L 154.26687 399.56094 L 154.26687 405.9378 C 154.5244 405.52087 154.70834 405.3124 155.16208 404.89545 L 156.6582 403.52197 L 157.57794 404.58887 Z M 174.66134 396.05885 C 173.36995 396.05885 172.32307 397.10572 172.32307 398.3971 L 172.32307 409.30903 C 172.32307 410.6004 173.36995 411.6473 174.66134 411.6473 L 201.16174 411.6473 C 202.45313 411.6473 203.5 410.6004 203.5 409.30903 L 203.5 398.3971 C 203.5 397.10572 202.45313 396.05885 201.16174 396.05885 L 174.66134 396.05885 Z M 192.3206 403.73616 L 188.76425 407.6972 L 187.69735 406.77744 L 189.07083 405.28133 C 189.42646 404.90117 189.73304 404.6191 190.12547 404.3861 L 183.73632 404.3861 L 183.73632 403.0862 L 190.1132 403.0862 C 189.69625 402.8287 189.48778 402.64473 189.07083 402.191 L 187.69735 400.6949 L 188.76425 399.77513 Z M 140.36672 377.3527 C 139.07533 377.3527 138.02845 378.3996 138.02845 379.69097 L 138.02845 390.6029 C 138.02845 391.89428 139.07533 392.94115 140.36672 392.94115 L 166.8671 392.94115 C 168.1585 392.94115 169.20538 391.89428 169.20538 390.6029 L 169.20538 379.69097 C 169.20538 378.3996 168.1585 377.3527 166.8671 377.3527 L 140.36672 377.3527 Z M 153.53897 380.8548 L 157.5 384.41113 L 156.58026 385.47803 L 155.08414 384.10455 C 154.70398 383.7489 154.42193 383.44234 154.18892 383.0499 L 154.18892 389.43906 L 152.88902 389.43906 L 152.88902 383.06218 C 152.63149 383.47913 152.44754 383.6876 151.9938 384.10455 L 150.49769 385.47803 L 149.57794 384.41113 Z" fill="white"/>
      <path d="M 105.83826 396.05885 C 104.54687 396.05885 103.5 397.10572 103.5 398.3971 L 103.5 409.30903 C 103.5 410.6004 104.54687 411.6473 105.83826 411.6473 L 132.33866 411.6473 C 133.63005 411.6473 134.67693 410.6004 134.67693 409.30903 L 134.67693 398.3971 C 134.67693 397.10572 133.63005 396.05885 132.33866 396.05885 L 105.83826 396.05885 Z M 114.91324 403.89204 L 118.46958 399.931 L 119.53648 400.85076 L 118.163 402.3469 C 117.80736 402.72704 117.50078 403.0091 117.10836 403.2421 L 123.49751 403.2421 L 123.49751 404.542 L 117.12062 404.542 C 117.53757 404.7995 117.74605 404.98347 118.163 405.4372 L 119.53648 406.93333 L 118.46958 407.85307 Z M 140.36672 396.05885 C 139.07533 396.05885 138.02845 397.10572 138.02845 398.3971 L 138.02845 409.30903 C 138.02845 410.6004 139.07533 411.6473 140.36672 411.6473 L 166.8671 411.6473 C 168.1585 411.6473 169.20538 410.6004 169.20538 409.30903 L 169.20538 398.3971 C 169.20538 397.10572 168.1585 396.05885 166.8671 396.05885 L 140.36672 396.05885 Z M 153.61691 408.1452 L 149.65588 404.58887 L 150.57563 403.52197 L 152.07174 404.89545 C 152.4519 405.2511 152.73396 405.55766 152.96696 405.9501 L 152.96696 399.56094 L 154.26687 399.56094 L 154.26687 405.9378 C 154.5244 405.52087 154.70834 405.3124 155.16208 404.89545 L 156.6582 403.52197 L 157.57794 404.58887 Z M 174.66134 396.05885 C 173.36995 396.05885 172.32307 397.10572 172.32307 398.3971 L 172.32307 409.30903 C 172.32307 410.6004 173.36995 411.6473 174.66134 411.6473 L 201.16174 411.6473 C 202.45313 411.6473 203.5 410.6004 203.5 409.30903 L 203.5 398.3971 C 203.5 397.10572 202.45313 396.05885 201.16174 396.05885 L 174.66134 396.05885 Z M 192.3206 403.73616 L 188.76425 407.6972 L 187.69735 406.77744 L 189.07083 405.28133 C 189.42646 404.90117 189.73304 404.6191 190.12547 404.3861 L 183.73632 404.3861 L 183.73632 403.0862 L 190.1132 403.0862 C 189.69625 402.8287 189.48778 402.64473 189.07083 402.191 L 187.69735 400.6949 L 188.76425 399.77513 Z M 140.36672 377.3527 C 139.07533 377.3527 138.02845 378.3996 138.02845 379.69097 L 138.02845 390.6029 C 138.02845 391.89428 139.07533 392.94115 140.36672 392.94115 L 166.8671 392.94115 C 168.1585 392.94115 169.20538 391.89428 169.20538 390.6029 L 169.20538 379.69097 C 169.20538 378.3996 168.1585 377.3527 166.8671 377.3527 L 140.36672 377.3527 Z M 153.53897 380.8548 L 157.5 384.41113 L 156.58026 385.47803 L 155.08414 384.10455 C 154.70398 383.7489 154.42193 383.44234 154.18892 383.0499 L 154.18892 389.43906 L 152.88902 389.43906 L 152.88902 383.06218 C 152.63149 383.47913 152.44754 383.6876 151.9938 384.10455 L 150.49769 385.47803 L 149.57794 384.41113 Z" stroke="black" stroke-opacity=".4967019" stroke-linecap="round" stroke-linejoin="round" stroke-width="1"/>
    </g>
  </g>
</svg>
